<?xml version="1.0" encoding="iso-8859-1"?>
<!-- Generator: Adobe Illustrator 19.0.0, SVG Export Plug-In . SVG Version: 6.00 Build 0)  -->
<svg version="1.1" id="Capa_1" xmlns="http://www.w3.org/2000/svg" xmlns:xlink="http://www.w3.org/1999/xlink" x="0px" y="0px"
	 viewBox="0 0 512 512" style="enable-background:new 0 0 512 512;" xml:space="preserve">
<g>
	<g>
		<g>
			<path d="M104.386,153.881l-26.07-26.068c-55.658,76.395-55.658,179.978,0,256.374l26.07-26.068
				C62.729,296.412,62.729,215.588,104.386,153.881z"/>
			<path d="M475.429,256c0.134-46.091-14.495-91.013-41.744-128.187l-26.07,26.068c41.657,61.707,41.657,142.531,0,204.238
				l26.07,26.068C460.933,347.013,475.562,302.091,475.429,256z"/>
			<path d="M358.113,104.383l26.07-26.069c-76.393-55.657-179.974-55.657-256.367,0l26.07,26.069
				C215.591,62.73,296.409,62.73,358.113,104.383z"/>
			<path d="M153.887,407.617l-26.07,26.069c76.393,55.657,179.974,55.657,256.367,0l-26.07-26.069
				C296.409,449.27,215.591,449.27,153.887,407.617z"/>
			<path d="M256,91.429C165.11,91.429,91.429,165.11,91.429,256S165.11,420.571,256,420.571S420.571,346.89,420.571,256
				C420.468,165.153,346.847,91.533,256,91.429z M355.678,269.446c-6.707,49.912-49.317,87.156-99.678,87.125
				c-45.519-0.004-85.362-30.578-97.144-74.545c-11.783-43.968,7.432-90.368,46.849-113.133c4.369-2.53,9.962-1.039,12.491,3.33
				c2.53,4.369,1.039,9.962-3.33,12.491c-33.893,19.501-49.399,60.147-37.107,97.267c12.292,37.12,48.993,60.478,87.826,55.896
				s69.09-35.84,72.405-74.802c3.315-38.962-21.226-74.882-58.727-85.959l7.809,8.821c3.314,3.786,2.948,9.537-0.819,12.873
				c-3.767,3.335-9.521,3.001-12.877-0.748l-24.224-27.375c-0.256-0.388-0.482-0.795-0.675-1.219
				c-0.786-0.983-1.249-2.185-1.326-3.441c-0.14-0.476-0.238-0.963-0.294-1.456c0-0.253,0.123-0.465,0.143-0.712
				c0.017-0.2-0.071-0.391-0.041-0.592c0.4-1.04,0.799-2.081,1.199-3.121c0.206-0.357,0.437-0.7,0.691-1.025
				c0.542-0.708,1.188-1.331,1.916-1.847c0.177-0.127,0.275-0.331,0.462-0.445l29.955-18.339c4.305-2.636,9.931-1.283,12.567,3.022
				c2.636,4.305,1.283,9.931-3.022,12.567l-8.191,5.017C331.119,172.363,362.385,219.534,355.678,269.446z"/>
			<path d="M396.496,139.143l51.83-51.826c-7.362-8.384-15.259-16.281-23.643-23.643l-51.831,51.827
				C381.433,122.65,389.346,130.563,396.496,139.143z"/>
			<path d="M459.974,101.526l-13.232,13.23c62.629,83.749,62.629,198.739,0,282.488l13.232,13.23
				C529.342,319.173,529.342,192.827,459.974,101.526z"/>
			<path d="M256,493.714c-50.899-0.105-100.416-16.573-141.241-46.971l-13.233,13.232c91.301,69.368,217.646,69.368,308.948,0
				l-13.233-13.232C356.416,477.142,306.899,493.609,256,493.714z"/>
			<path d="M372.852,396.499l51.831,51.827c8.384-7.362,16.281-15.259,23.643-23.643l-51.83-51.826
				C389.346,381.437,381.433,389.35,372.852,396.499z"/>
			<path d="M115.504,372.857l-51.83,51.826c7.362,8.384,15.259,16.281,23.643,23.643l51.831-51.827
				C130.567,389.35,122.654,381.437,115.504,372.857z"/>
			<path d="M139.148,115.501L87.317,63.674c-8.384,7.362-16.281,15.259-23.643,23.643l51.83,51.826
				C122.654,130.563,130.567,122.65,139.148,115.501z"/>
			<path d="M18.286,256c0.102-50.901,16.57-100.42,46.972-141.244l-13.232-13.23c-69.368,91.301-69.368,217.647,0,308.949
				l13.232-13.23C34.855,356.42,18.388,306.901,18.286,256z"/>
			<path d="M256,18.286c50.899,0.105,100.416,16.573,141.241,46.972l13.233-13.232c-91.301-69.368-217.646-69.368-308.948,0
				l13.233,13.232C155.584,34.858,205.101,18.391,256,18.286z"/>
		</g>
	</g>
</g>
<g>
</g>
<g>
</g>
<g>
</g>
<g>
</g>
<g>
</g>
<g>
</g>
<g>
</g>
<g>
</g>
<g>
</g>
<g>
</g>
<g>
</g>
<g>
</g>
<g>
</g>
<g>
</g>
<g>
</g>
</svg>
